# xmcd CD database file
# Generated: sze dec 17 09:01:31 2003 by KSCD
# 
# Track frame offsets:
#       150
#       9991
#       21064
#       32901
#       50533
#       65262
#       82113
#       102915
#       115175
#       129387
#       142684
#       150932
#       162512
#       176694
#       191844
#
# Disc length: 2743 seconds
#
# Revision: 3
# Processed by: cddbd v1.4PL0 Copyright (c) Steve Scherf et al.
# Submitted via: Kscd 1.3.3
#
DISCID=bb0ab50f
DTITLE=Johnny Cash - American III: Solitary Man
DYEAR=1900
DGENRE=
TTITLE0=I Won't Back Down
TTITLE1=Solitary Man
TTITLE2=That Lucky Old Sun
TTITLE3=One
TTITLE4=Nobody
TTITLE5=I See A Darkness
TTITLE6=The Mercy Seat
TTITLE7=Would You Lay With Me
TTITLE8=Field Of Diamonds
TTITLE9=Before My Time
TTITLE10=Country Trash
TTITLE11=Mary Of The Wild Moor
TTITLE12=I'm Leaving Now
TTITLE13=Wayfaring Stranger
TTITLE14=I'm On Fire
EXTD=
EXTT0=
EXTT1=
EXTT2=
EXTT3=
EXTT4=
EXTT5=
EXTT6=
EXTT7=
EXTT8=
EXTT9=
EXTT10=
EXTT11=
EXTT12=
EXTT13=
EXTT14=
PLAYORDER=
